<svg width="1440" height="436" viewBox="0 0 1440 436" fill="none" xmlns="http://www.w3.org/2000/svg">
<rect opacity="0.04" x="1008.03" width="144" height="145" fill="white"/>
<path fill-rule="evenodd" clip-rule="evenodd" d="M0.500276 0H0V0.500276V145.18V145.68H0.000227869V289.36V289.86V289.861V290.361V434.54V435.041H0.500503H144.358H144.859V435.04H287.716H288.216H288.716H431.573H432.074H432.574H576.253H576.753H577.254H720.111H720.611H721.111H863.969H864.469H864.969H1007.72H1008.22H1008.33H1008.83H1151.46H1151.96H1152.07H1152.57H1295.21H1295.71H1295.82H1296.32H1439.57H1440.07V434.54V290.361V289.86V289.36V145.681V145.181V144.68V0.500587V0.000311255H1439.57H1296.32H1295.82H1295.71H1295.21H1152.57H1152.07H1151.96H1151.46H1008.83H1008.33H1008.22H1007.72H864.969H864.469H863.969H721.111H720.611H720.111H577.254H576.753H576.253H432.574H432.074H431.573H288.716H288.216H287.716H144.858V0H144.358H0.500276ZM1.00055 144.68V1.00055H143.858V144.68H1.00055ZM287.716 1.00086V144.68L144.858 144.68V1.00086H287.716ZM431.573 144.68L288.716 144.68V1.00086H431.573V144.68ZM432.574 1.00086V144.68L576.253 144.68L576.253 1.00086H432.574ZM720.111 144.68L577.254 144.68V1.00086H720.111L720.111 144.68ZM721.111 1.00086V144.68L863.969 144.68V1.00086H721.111ZM1007.72 144.68H864.969V1.00086H1007.72V144.68ZM1295.21 1.00086V144.68L1152.57 144.68V1.00086H1295.21ZM1296.32 144.68L1439.07 144.68V1.00086H1296.32V144.68ZM1008.83 1.00086H1151.46V144.68L1008.83 144.68V1.00086ZM144.858 145.681V289.36L287.716 289.36V145.681H144.858ZM144.859 290.361L144.858 434.04H287.716V290.36L144.859 290.361ZM143.858 145.681H1.00078V289.36H143.858V145.681ZM288.716 434.04V290.36H431.573V434.04H288.716ZM288.716 289.36V145.681H431.573L431.573 289.36H288.716ZM432.574 145.681L432.574 289.36H576.253L576.253 145.681H432.574ZM576.253 290.36V434.04H432.574V290.36H576.253ZM577.254 289.36L577.254 145.681H720.111L720.111 289.36H577.254ZM720.111 434.04V290.36H577.254V434.04H720.111ZM721.111 145.681L721.111 289.36H863.969V145.681H721.111ZM863.969 290.361V434.04H721.111V290.36L863.969 290.361ZM864.969 289.36V145.681H1007.72V289.36L864.969 289.36ZM1439.07 434.04V290.36H1296.32V434.04H1439.07ZM1295.21 145.681V289.36H1152.57V145.681H1295.21ZM1295.21 290.36V434.04H1152.57V290.36H1295.21ZM1439.07 289.36V145.681H1296.32V289.36L1439.07 289.36ZM1008.83 145.681H1151.46V289.36H1008.83V145.681ZM1008.83 290.361L1151.46 290.36V434.04H1008.83V290.361ZM1007.72 290.36V434.04H864.969V290.36H1007.72ZM143.858 290.361H1.00078V434.04H143.858V290.361Z" fill="url(#paint0_linear)"/>
<defs>
<linearGradient id="paint0_linear" x1="504.069" y1="-510.192" x2="504.069" y2="435.04" gradientUnits="userSpaceOnUse">
<stop stop-color="white"/>
<stop offset="1" stop-color="white" stop-opacity="0"/>
</linearGradient>
</defs>
</svg>